<svg width="33" height="33" viewBox="0 0 33 33" fill="none" xmlns="http://www.w3.org/2000/svg">
<path d="M30.5749 6.19066C30.1323 5.74787 29.4145 5.74807 28.9718 6.19066L23.9184 11.2439C23.4758 11.6866 23.4758 12.4044 23.9184 12.847C24.361 13.2898 25.0789 13.2896 25.5215 12.847L30.5749 7.79374C31.0175 7.35108 31.0175 6.63333 30.5749 6.19066Z" fill="#1B4EF5"/>
<path d="M31.8665 15.3666H24.72C24.0939 15.3666 23.5864 15.8741 23.5864 16.5001C23.5864 17.1261 24.094 17.6336 24.72 17.6336H31.8664C32.4924 17.6336 32.9999 17.1261 32.9999 16.5001C33 15.8741 32.4925 15.3666 31.8665 15.3666Z" fill="#1B4EF5"/>
<path d="M30.5749 25.2066L25.5215 20.1532C25.0788 19.7106 24.361 19.7106 23.9184 20.1532C23.4758 20.5959 23.4758 21.3137 23.9184 21.7563L28.9718 26.8096C29.4145 27.2524 30.1322 27.2524 30.5749 26.8096C31.0175 26.367 31.0175 25.6492 30.5749 25.2066Z" fill="#1B4EF5"/>
<path d="M1.13354 10.4424C0.507504 10.4424 0 10.95 0 11.5759V21.4243C0 22.0503 0.507504 22.5578 1.13354 22.5578H8.16447V10.4424H1.13354Z" fill="#1B4EF5"/>
<path d="M18.5683 3.27969L10.4317 9.32236V23.6782L18.5683 29.7209C19.3103 30.272 20.3777 29.7473 20.3777 28.8109V4.18977C20.3777 3.25926 19.3147 2.72533 18.5683 3.27969Z" fill="#1B4EF5"/>
</svg>
