<?xml version="1.0" encoding="iso-8859-1"?>
<!-- Generator: Adobe Illustrator 19.0.0, SVG Export Plug-In . SVG Version: 6.00 Build 0)  -->
<svg version="1.1" id="Capa_1" xmlns="http://www.w3.org/2000/svg" xmlns:xlink="http://www.w3.org/1999/xlink" x="0px" y="0px"
	 viewBox="0 0 512.001 512.001" style="enable-background:new 0 0 512.001 512.001;" xml:space="preserve">
<path style="fill:#FED9A8;" d="M68.437,365.724L0.385,506.643c-1.533,3.175,1.796,6.505,4.972,4.972l140.92-68.052l13.933-13.933
	l-77.84-77.839L68.437,365.724z"/>
<path style="fill:#333333;" d="M5.357,511.615l74.646-36.048l-43.57-43.57L0.385,506.643
	C-1.148,509.819,2.181,513.148,5.357,511.615z"/>
<path style="fill:#F4C892;" d="M1.105,510.895c1.038,1.038,2.664,1.487,4.251,0.72l140.92-68.052l13.933-13.933l-38.92-38.92
	L1.105,510.895z"/>
<path style="fill:#1A1A1A;" d="M1.105,510.895c1.038,1.038,2.664,1.487,4.252,0.72l74.646-36.048l-21.785-21.785L1.105,510.895z"/>
<path style="fill:#FFBF14;" d="M495.879,16.121L495.879,16.121c21.495,21.495,21.495,56.344,0,77.839L146.553,443.286
	l-77.839-77.839L418.04,16.121C439.535-5.374,474.384-5.374,495.879,16.121z"/>
<path style="fill:#FF901D;" d="M495.879,16.121L495.879,16.121c-5.808-5.808-12.595-10.032-19.826-12.701
	c7.21,19.531,2.986,42.326-12.701,58.013L114.026,410.759l32.527,32.527L495.879,93.96
	C517.374,72.465,517.374,37.616,495.879,16.121z"/>
<rect x="356.992" y="79.027" transform="matrix(0.7071 0.7071 -0.7071 0.7071 191.3749 -262.0683)" style="fill:#21D8DE;" width="110.079" height="41.898"/>
<rect x="411.201" y="101.478" transform="matrix(0.7071 0.7071 -0.7071 0.7071 213.8263 -271.3698)" style="fill:#11B9C1;" width="46.57" height="41.898"/>
<path style="fill:#FF4C4C;" d="M495.879,16.121L495.879,16.121c-21.495-21.495-56.344-21.495-77.839,0l-30.118,30.118l77.839,77.839
	l30.118-30.118C517.373,72.465,517.373,37.616,495.879,16.121z"/>
<path style="fill:#F33939;" d="M495.879,16.121L495.879,16.121c-5.854-5.854-12.702-10.101-19.997-12.766
	c7.122,19.492,2.875,42.201-12.766,57.842l-30.118,30.118l32.763,32.763l30.118-30.118
	C517.373,72.465,517.374,37.616,495.879,16.121z"/>
<rect x="234.049" y="54.812" transform="matrix(-0.7071 -0.7071 0.7071 -0.7071 247.3655 621.613)" style="fill:#FFB123;" width="36.748" height="409.526"/>
<g>
</g>
<g>
</g>
<g>
</g>
<g>
</g>
<g>
</g>
<g>
</g>
<g>
</g>
<g>
</g>
<g>
</g>
<g>
</g>
<g>
</g>
<g>
</g>
<g>
</g>
<g>
</g>
<g>
</g>
</svg>
