<svg width="30" height="30" viewBox="0 0 30 30" fill="none" xmlns="http://www.w3.org/2000/svg">
<path d="M13.269 10.4782C14.0393 9.14735 15.9607 9.14735 16.731 10.4782L22.6751 20.7481C23.4468 22.0815 22.4846 23.75 20.9441 23.75H9.05591C7.51535 23.75 6.55322 22.0815 7.32493 20.7481L13.269 10.4782ZM16.7309 5.48966C15.9605 4.15909 14.0395 4.15908 13.2691 5.48965L2.98804 23.2479C2.21611 24.5813 3.17823 26.25 4.71889 26.25H25.2811C26.8218 26.25 27.7839 24.5813 27.012 23.2479L16.7309 5.48966Z" fill="#F20000"/>
<path d="M16.25 21.25C16.25 20.5596 15.6904 20 15 20C14.3096 20 13.75 20.5596 13.75 21.25C13.75 21.9404 14.3096 22.5 15 22.5C15.6904 22.5 16.25 21.9404 16.25 21.25Z" fill="#F20000"/>
<path d="M16.25 13.75C16.25 13.0596 15.6904 12.5 15 12.5C14.3096 12.5 13.75 13.0596 13.75 13.75V17.5C13.75 18.1904 14.3096 18.75 15 18.75C15.6904 18.75 16.25 18.1904 16.25 17.5V13.75Z" fill="#F20000"/>
</svg>
