<svg width="71" height="75" viewBox="0 0 71 75" fill="none" xmlns="http://www.w3.org/2000/svg">
<g filter="url(#filter0_d)">
<circle cx="35.5" cy="34.5" r="27.5" fill="#1B4EF5"/>
</g>
<path d="M33.64 39.19L30.209 18.98H38.998L35.52 39.19H33.64ZM34.58 50.235C33.5147 50.235 32.5903 49.859 31.807 49.107C31.055 48.3237 30.679 47.3993 30.679 46.334C30.679 45.2687 31.055 44.36 31.807 43.608C32.5903 42.8247 33.5147 42.433 34.58 42.433C35.6453 42.433 36.554 42.8247 37.306 43.608C38.0893 44.36 38.481 45.2687 38.481 46.334C38.481 47.3993 38.0893 48.3237 37.306 49.107C36.554 49.859 35.6453 50.235 34.58 50.235Z" fill="white"/>
<g filter="url(#filter1_d)">
<path d="M15.8562 50.9721L25.814 59.1932L14.8528 63.8459L15.8562 50.9721Z" fill="#1B4EF5"/>
</g>
<defs>
<filter id="filter0_d" x="0" y="4" width="71" height="71" filterUnits="userSpaceOnUse" color-interpolation-filters="sRGB">
<feFlood flood-opacity="0" result="BackgroundImageFix"/>
<feColorMatrix in="SourceAlpha" type="matrix" values="0 0 0 0 0 0 0 0 0 0 0 0 0 0 0 0 0 0 127 0" result="hardAlpha"/>
<feMorphology radius="1" operator="dilate" in="SourceAlpha" result="effect1_dropShadow"/>
<feOffset dy="5"/>
<feGaussianBlur stdDeviation="3.5"/>
<feComposite in2="hardAlpha" operator="out"/>
<feColorMatrix type="matrix" values="0 0 0 0 0.105882 0 0 0 0 0.305882 0 0 0 0 0.960784 0 0 0 0.2 0"/>
<feBlend mode="normal" in2="BackgroundImageFix" result="effect1_dropShadow"/>
<feBlend mode="normal" in="SourceGraphic" in2="effect1_dropShadow" result="shape"/>
</filter>
<filter id="filter1_d" x="6.37561" y="48.6458" width="23.4384" height="23.2002" filterUnits="userSpaceOnUse" color-interpolation-filters="sRGB">
<feFlood flood-opacity="0" result="BackgroundImageFix"/>
<feColorMatrix in="SourceAlpha" type="matrix" values="0 0 0 0 0 0 0 0 0 0 0 0 0 0 0 0 0 0 127 0" result="hardAlpha"/>
<feOffset dy="4"/>
<feGaussianBlur stdDeviation="2"/>
<feComposite in2="hardAlpha" operator="out"/>
<feColorMatrix type="matrix" values="0 0 0 0 0.105882 0 0 0 0 0.305882 0 0 0 0 0.960784 0 0 0 0.2 0"/>
<feBlend mode="normal" in2="BackgroundImageFix" result="effect1_dropShadow"/>
<feBlend mode="normal" in="SourceGraphic" in2="effect1_dropShadow" result="shape"/>
</filter>
</defs>
</svg>
