<svg width="240" height="197" viewBox="0 0 240 197" fill="none" xmlns="http://www.w3.org/2000/svg">
<rect width="240" height="197" rx="38" fill="white"/>
<path d="M69.7549 142.723H54.8623L51.5176 152H46.6836L60.2578 116.453H64.3594L77.958 152H73.1484L69.7549 142.723ZM56.2783 138.865H68.3633L62.3086 122.239L56.2783 138.865ZM86.9424 152H82.4258V114.5H86.9424V152ZM105.155 152.488C101.575 152.488 98.6611 151.316 96.415 148.973C94.1689 146.613 93.0459 143.463 93.0459 139.524V138.694C93.0459 136.074 93.5423 133.738 94.5352 131.688C95.5443 129.62 96.944 128.009 98.7344 126.854C100.541 125.682 102.494 125.096 104.594 125.096C108.028 125.096 110.697 126.227 112.602 128.489C114.506 130.752 115.458 133.991 115.458 138.206V140.086H97.5625C97.6276 142.69 98.3844 144.798 99.833 146.409C101.298 148.004 103.153 148.802 105.399 148.802C106.994 148.802 108.345 148.476 109.452 147.825C110.559 147.174 111.527 146.312 112.357 145.237L115.116 147.386C112.903 150.787 109.582 152.488 105.155 152.488ZM104.594 128.807C102.771 128.807 101.241 129.474 100.004 130.809C98.7669 132.127 98.002 133.982 97.709 136.375H110.941V136.033C110.811 133.738 110.193 131.964 109.086 130.711C107.979 129.441 106.482 128.807 104.594 128.807ZM133.476 129.637C132.792 129.523 132.051 129.466 131.254 129.466C128.292 129.466 126.282 130.727 125.224 133.25V152H120.707V125.584H125.102L125.175 128.636C126.656 126.276 128.756 125.096 131.474 125.096C132.353 125.096 133.02 125.21 133.476 125.438V129.637ZM144.999 119.188V125.584H149.931V129.075H144.999V145.457C144.999 146.515 145.219 147.312 145.658 147.85C146.098 148.37 146.846 148.631 147.904 148.631C148.425 148.631 149.141 148.533 150.053 148.338V152C148.865 152.326 147.709 152.488 146.586 152.488C144.568 152.488 143.046 151.878 142.021 150.657C140.995 149.437 140.482 147.703 140.482 145.457V129.075H135.673V125.584H140.482V119.188H144.999ZM167.997 129.637C167.313 129.523 166.573 129.466 165.775 129.466C162.813 129.466 160.803 130.727 159.745 133.25V152H155.229V125.584H159.623L159.696 128.636C161.177 126.276 163.277 125.096 165.995 125.096C166.874 125.096 167.541 125.21 167.997 125.438V129.637ZM187.504 152C187.243 151.479 187.032 150.551 186.869 149.217C184.77 151.398 182.263 152.488 179.35 152.488C176.745 152.488 174.605 151.756 172.929 150.291C171.269 148.81 170.438 146.938 170.438 144.676C170.438 141.925 171.48 139.793 173.563 138.279C175.663 136.749 178.609 135.984 182.401 135.984H186.796V133.909C186.796 132.33 186.324 131.077 185.38 130.149C184.436 129.205 183.044 128.733 181.205 128.733C179.594 128.733 178.243 129.14 177.152 129.954C176.062 130.768 175.517 131.753 175.517 132.908H170.976C170.976 131.59 171.439 130.32 172.367 129.1C173.311 127.863 174.581 126.886 176.176 126.17C177.787 125.454 179.553 125.096 181.474 125.096C184.517 125.096 186.902 125.861 188.627 127.391C190.352 128.904 191.247 130.996 191.312 133.665V145.823C191.312 148.248 191.622 150.177 192.24 151.609V152H187.504ZM180.009 148.558C181.425 148.558 182.768 148.191 184.037 147.459C185.307 146.727 186.226 145.774 186.796 144.603V139.183H183.256C177.722 139.183 174.955 140.802 174.955 144.041C174.955 145.457 175.427 146.564 176.371 147.361C177.315 148.159 178.528 148.558 180.009 148.558Z" fill="black"/>
<g filter="url(#filter0_d)">
<circle cx="121.5" cy="77.5" r="27.5" fill="#1B4EF5"/>
</g>
<path d="M119.64 82.19L116.209 61.98H124.998L121.52 82.19H119.64ZM120.58 93.235C119.515 93.235 118.59 92.859 117.807 92.107C117.055 91.3237 116.679 90.3993 116.679 89.334C116.679 88.2687 117.055 87.36 117.807 86.608C118.59 85.8247 119.515 85.433 120.58 85.433C121.645 85.433 122.554 85.8247 123.306 86.608C124.089 87.36 124.481 88.2687 124.481 89.334C124.481 90.3993 124.089 91.3237 123.306 92.107C122.554 92.859 121.645 93.235 120.58 93.235Z" fill="white"/>
<g filter="url(#filter1_d)">
<path d="M101.856 93.9721L111.814 102.193L100.853 106.846L101.856 93.9721Z" fill="#1B4EF5"/>
</g>
<defs>
<filter id="filter0_d" x="86" y="47" width="71" height="71" filterUnits="userSpaceOnUse" color-interpolation-filters="sRGB">
<feFlood flood-opacity="0" result="BackgroundImageFix"/>
<feColorMatrix in="SourceAlpha" type="matrix" values="0 0 0 0 0 0 0 0 0 0 0 0 0 0 0 0 0 0 127 0" result="hardAlpha"/>
<feMorphology radius="1" operator="dilate" in="SourceAlpha" result="effect1_dropShadow"/>
<feOffset dy="5"/>
<feGaussianBlur stdDeviation="3.5"/>
<feComposite in2="hardAlpha" operator="out"/>
<feColorMatrix type="matrix" values="0 0 0 0 0.105882 0 0 0 0 0.305882 0 0 0 0 0.960784 0 0 0 0.2 0"/>
<feBlend mode="normal" in2="BackgroundImageFix" result="effect1_dropShadow"/>
<feBlend mode="normal" in="SourceGraphic" in2="effect1_dropShadow" result="shape"/>
</filter>
<filter id="filter1_d" x="92.3756" y="91.6458" width="23.4384" height="23.2002" filterUnits="userSpaceOnUse" color-interpolation-filters="sRGB">
<feFlood flood-opacity="0" result="BackgroundImageFix"/>
<feColorMatrix in="SourceAlpha" type="matrix" values="0 0 0 0 0 0 0 0 0 0 0 0 0 0 0 0 0 0 127 0" result="hardAlpha"/>
<feOffset dy="4"/>
<feGaussianBlur stdDeviation="2"/>
<feComposite in2="hardAlpha" operator="out"/>
<feColorMatrix type="matrix" values="0 0 0 0 0.105882 0 0 0 0 0.305882 0 0 0 0 0.960784 0 0 0 0.2 0"/>
<feBlend mode="normal" in2="BackgroundImageFix" result="effect1_dropShadow"/>
<feBlend mode="normal" in="SourceGraphic" in2="effect1_dropShadow" result="shape"/>
</filter>
</defs>
</svg>
