<svg width="149" height="131" viewBox="0 0 149 131" fill="none" xmlns="http://www.w3.org/2000/svg">
<path d="M23.7549 109.723H8.8623L5.51758 119H0.683594L14.2578 83.4531H18.3594L31.958 119H27.1484L23.7549 109.723ZM10.2783 105.865H22.3633L16.3086 89.2393L10.2783 105.865ZM40.9424 119H36.4258V81.5H40.9424V119ZM59.1553 119.488C55.5745 119.488 52.6611 118.316 50.415 115.973C48.1689 113.613 47.0459 110.463 47.0459 106.524V105.694C47.0459 103.074 47.5423 100.738 48.5352 98.6875C49.5443 96.6204 50.944 95.0091 52.7344 93.8535C54.541 92.6816 56.4941 92.0957 58.5938 92.0957C62.028 92.0957 64.6973 93.2269 66.6016 95.4893C68.5059 97.7516 69.458 100.991 69.458 105.206V107.086H51.5625C51.6276 109.69 52.3844 111.798 53.833 113.409C55.2979 115.004 57.1533 115.802 59.3994 115.802C60.9945 115.802 62.3454 115.476 63.4521 114.825C64.5589 114.174 65.5273 113.312 66.3574 112.237L69.1162 114.386C66.9027 117.787 63.5824 119.488 59.1553 119.488ZM58.5938 95.8066C56.7708 95.8066 55.2409 96.474 54.0039 97.8086C52.7669 99.127 52.002 100.982 51.709 103.375H64.9414V103.033C64.8112 100.738 64.1927 98.9642 63.0859 97.7109C61.9792 96.4414 60.4818 95.8066 58.5938 95.8066ZM87.4756 96.6367C86.792 96.5228 86.0514 96.4658 85.2539 96.4658C82.2917 96.4658 80.2816 97.7272 79.2236 100.25V119H74.707V92.584H79.1016L79.1748 95.6357C80.6559 93.2757 82.7555 92.0957 85.4736 92.0957C86.3525 92.0957 87.0199 92.2096 87.4756 92.4375V96.6367ZM98.999 86.1875V92.584H103.931V96.0752H98.999V112.457C98.999 113.515 99.2188 114.312 99.6582 114.85C100.098 115.37 100.846 115.631 101.904 115.631C102.425 115.631 103.141 115.533 104.053 115.338V119C102.865 119.326 101.709 119.488 100.586 119.488C98.5677 119.488 97.0459 118.878 96.0205 117.657C94.9951 116.437 94.4824 114.703 94.4824 112.457V96.0752H89.6729V92.584H94.4824V86.1875H98.999ZM121.997 96.6367C121.313 96.5228 120.573 96.4658 119.775 96.4658C116.813 96.4658 114.803 97.7272 113.745 100.25V119H109.229V92.584H113.623L113.696 95.6357C115.177 93.2757 117.277 92.0957 119.995 92.0957C120.874 92.0957 121.541 92.2096 121.997 92.4375V96.6367ZM141.504 119C141.243 118.479 141.032 117.551 140.869 116.217C138.77 118.398 136.263 119.488 133.35 119.488C130.745 119.488 128.605 118.756 126.929 117.291C125.269 115.81 124.438 113.938 124.438 111.676C124.438 108.925 125.48 106.793 127.563 105.279C129.663 103.749 132.609 102.984 136.401 102.984H140.796V100.909C140.796 99.3304 140.324 98.0771 139.38 97.1494C138.436 96.2054 137.044 95.7334 135.205 95.7334C133.594 95.7334 132.243 96.1403 131.152 96.9541C130.062 97.7679 129.517 98.7526 129.517 99.9082H124.976C124.976 98.5898 125.439 97.3203 126.367 96.0996C127.311 94.8626 128.581 93.8861 130.176 93.1699C131.787 92.4538 133.553 92.0957 135.474 92.0957C138.517 92.0957 140.902 92.8607 142.627 94.3906C144.352 95.9043 145.247 97.9958 145.312 100.665V112.823C145.312 115.248 145.622 117.177 146.24 118.609V119H141.504ZM134.009 115.558C135.425 115.558 136.768 115.191 138.037 114.459C139.307 113.727 140.226 112.774 140.796 111.603V106.183H137.256C131.722 106.183 128.955 107.802 128.955 111.041C128.955 112.457 129.427 113.564 130.371 114.361C131.315 115.159 132.528 115.558 134.009 115.558Z" fill="black"/>
<g filter="url(#filter0_d)">
<circle cx="75.5" cy="44.5" r="27.5" fill="#1B4EF5"/>
</g>
<path d="M73.64 49.19L70.209 28.98H78.998L75.52 49.19H73.64ZM74.58 60.235C73.5147 60.235 72.5903 59.859 71.807 59.107C71.055 58.3237 70.679 57.3993 70.679 56.334C70.679 55.2687 71.055 54.36 71.807 53.608C72.5903 52.8247 73.5147 52.433 74.58 52.433C75.6453 52.433 76.554 52.8247 77.306 53.608C78.0893 54.36 78.481 55.2687 78.481 56.334C78.481 57.3993 78.0893 58.3237 77.306 59.107C76.554 59.859 75.6453 60.235 74.58 60.235Z" fill="white"/>
<g filter="url(#filter1_d)">
<path d="M55.8562 60.9721L65.814 69.1932L54.8528 73.8459L55.8562 60.9721Z" fill="#1B4EF5"/>
</g>
<defs>
<filter id="filter0_d" x="40" y="14" width="71" height="71" filterUnits="userSpaceOnUse" color-interpolation-filters="sRGB">
<feFlood flood-opacity="0" result="BackgroundImageFix"/>
<feColorMatrix in="SourceAlpha" type="matrix" values="0 0 0 0 0 0 0 0 0 0 0 0 0 0 0 0 0 0 127 0" result="hardAlpha"/>
<feMorphology radius="1" operator="dilate" in="SourceAlpha" result="effect1_dropShadow"/>
<feOffset dy="5"/>
<feGaussianBlur stdDeviation="3.5"/>
<feComposite in2="hardAlpha" operator="out"/>
<feColorMatrix type="matrix" values="0 0 0 0 0.105882 0 0 0 0 0.305882 0 0 0 0 0.960784 0 0 0 0.2 0"/>
<feBlend mode="normal" in2="BackgroundImageFix" result="effect1_dropShadow"/>
<feBlend mode="normal" in="SourceGraphic" in2="effect1_dropShadow" result="shape"/>
</filter>
<filter id="filter1_d" x="46.3756" y="58.6457" width="23.4384" height="23.2002" filterUnits="userSpaceOnUse" color-interpolation-filters="sRGB">
<feFlood flood-opacity="0" result="BackgroundImageFix"/>
<feColorMatrix in="SourceAlpha" type="matrix" values="0 0 0 0 0 0 0 0 0 0 0 0 0 0 0 0 0 0 127 0" result="hardAlpha"/>
<feOffset dy="4"/>
<feGaussianBlur stdDeviation="2"/>
<feComposite in2="hardAlpha" operator="out"/>
<feColorMatrix type="matrix" values="0 0 0 0 0.105882 0 0 0 0 0.305882 0 0 0 0 0.960784 0 0 0 0.2 0"/>
<feBlend mode="normal" in2="BackgroundImageFix" result="effect1_dropShadow"/>
<feBlend mode="normal" in="SourceGraphic" in2="effect1_dropShadow" result="shape"/>
</filter>
</defs>
</svg>
