<?xml version="1.0" encoding="iso-8859-1"?>
<!-- Generator: Adobe Illustrator 19.0.0, SVG Export Plug-In . SVG Version: 6.00 Build 0)  -->
<svg version="1.1" id="Capa_1" xmlns="http://www.w3.org/2000/svg" xmlns:xlink="http://www.w3.org/1999/xlink" x="0px" y="0px"
	 viewBox="0 0 420 420" style="enable-background:new 0 0 420 420;" xml:space="preserve">
<g>
	<g>
		<path d="M279.517,45.129l-12.306-16.155l12.306-16.153c2.673-3.505,1.999-8.513-1.506-11.186
			c-1.396-1.064-3.103-1.639-4.858-1.635h-63c-4.442-0.025-8.078,3.529-8.153,7.971V79h16V58h55.153c4.428-0.01,8.01-3.608,8-8.036
			C281.149,48.217,280.574,46.519,279.517,45.129z"/>
	</g>
</g>
<g>
	<g>
		<path d="M26.862,252c-6.517-0.034-11.828,5.221-11.862,11.737c0,0.052,0,0.104,0,0.156V420h101V252H26.862z M53,376
			c0,4.418-3.582,8-8,8s-8-3.582-8-8v-17.191c0-4.418,3.582-8,8-8s8,3.582,8,8V376z M53,309.042c0,4.418-3.582,8-8,8s-8-3.582-8-8
			V291.85c0-4.418,3.582-8,8-8s8,3.582,8,8V309.042z M94,376c0,4.418-3.582,8-8,8s-8-3.582-8-8v-17.191c0-4.418,3.582-8,8-8
			s8,3.582,8,8V376z M94,309.042c0,4.418-3.582,8-8,8s-8-3.582-8-8V291.85c0-4.418,3.582-8,8-8s8,3.582,8,8V309.042z"/>
	</g>
</g>
<g>
	<g>
		<path d="M208.714,140.5L132,205.754V420h35v-83.311c-0.106-4.141,3.165-7.583,7.306-7.69c0.135-0.003,0.27-0.003,0.405,0.001
			h68.768c4.055-0.102,7.425,3.102,7.527,7.156c0.004,0.178,0.003,0.355-0.006,0.533V420h34V205.68L208.714,140.5z M243.479,284
			h-69.22c-4.418,0-8-3.582-8-8s3.582-8,8-8h69.22c4.418,0,8,3.582,8,8S247.897,284,243.479,284z"/>
	</g>
</g>
<g>
	<g>
		<path d="M393.294,252c-0.052,0-0.104,0-0.156,0H301v168h104V263.893C405.052,257.376,399.81,252.052,393.294,252z M342,376
			c0,4.418-3.582,8-8,8s-8-3.582-8-8v-17.191c0-4.418,3.582-8,8-8s8,3.582,8,8V376z M342,309.042c0,4.418-3.582,8-8,8s-8-3.582-8-8
			V291.85c0-4.418,3.582-8,8-8s8,3.582,8,8V309.042z M382,376c0,4.418-3.582,8-8,8s-8-3.582-8-8v-17.191c0-4.418,3.582-8,8-8
			s8,3.582,8,8V376z M382,309.042c0,4.418-3.582,8-8,8s-8-3.582-8-8V291.85c0-4.418,3.582-8,8-8s8,3.582,8,8V309.042z"/>
	</g>
</g>
<g>
	<g>
		<path d="M209.1,89.836l-114.483,98.01l14.468,16.835l94.821-80.795c2.995-2.552,7.401-2.548,10.391,0.011l94.427,80.817
			l14.8-16.914L209.1,89.836z"/>
	</g>
</g>
<g>
	<g>
		<rect x="183" y="345" width="52" height="75"/>
	</g>
</g>
<g>
</g>
<g>
</g>
<g>
</g>
<g>
</g>
<g>
</g>
<g>
</g>
<g>
</g>
<g>
</g>
<g>
</g>
<g>
</g>
<g>
</g>
<g>
</g>
<g>
</g>
<g>
</g>
<g>
</g>
</svg>
